<?xml version="1.0" encoding="UTF-8"?>
<svg width="64" height="64" viewBox="0 0 64 64" fill="none" xmlns="http://www.w3.org/2000/svg">
  <defs>
    <linearGradient id="g" x1="0" x2="1" y1="0" y2="1">
      <stop offset="0%" stop-color="#E6E9EE"/>
      <stop offset="100%" stop-color="#BFC7CC"/>
    </linearGradient>
  </defs>
  <rect width="64" height="64" rx="12" fill="url(#g)"/>
  <circle cx="32" cy="32" r="24" fill="#FFFFFF" opacity="0.06"/>
  <g transform="translate(12,10)">
    <path d="M22 6H6c-1.1 0-2 .9-2 2v2h8.5l-5 18H4v2c0 1.1.9 2 2 2h12c1.1 0 2-.9 2-2v-2h-8.5l5-18H22V8c0-1.1-.9-2-2-2z" fill="#2F80ED"/>
    <path d="M20.5 0L18 4h-9l-1 4h-2l2-8h13.5z" fill="#90CAF9" opacity="0.9"/>
  </g>
</svg>
